/* XPM */
static char *_6056c9e6725458af1941cbdf728e403[] = {
/* columns rows colors chars-per-pixel */
"32 32 4 1 ",
"  c #686868",
". c DimGray",
"X c #6A6A6A",
"o c None",
/* pixels */
"oooooooooooo........oooooooooooo",
"ooooooooo....ooooooo...ooooooooo",
"ooooooo...ooooooooooooo.oooooooo",
"oooooo..oooooooooooooooo..oooooo",
"ooooo.....oooooooooooooooo.ooooo",
"oooooooooooooooooooooooXooo.oooo",
"ooo........oooooooooo..o..oo.ooo",
"oo..ooooooooooooooooo.oooo.o.ooo",
"oo...oooooooooooooooo.oooo..o.oo",
"oooooooooooooooooooo..oo.oo.oo.o",
"o....oooooooooooooooo.oo.oo.oo.o",
"o.ooooooooooooooooooo.ooooo.oo.o",
"o.......ooooooooooooooXoooo.oooX",
"oooooooooooooooooooooo..oo.oooo.",
"...............oooooooooXXooooo.",
".oooooooooooooooooooooooooooooo.",
".oooooooooooooooooooooooooooooo.",
"...........oooooooooooooo.......",
"ooooooooooooooooooooooooooooooo.",
"o.............oooooooooooooo....",
"o.oooooooooooooooooooooooooooo.o",
"o........ooooooooooooooooooooo.o",
"oooooooooooooooooooooooooooooo.o",
"oo...ooooooooooooooooo........oo",
"oo..oooooooooooooooooooooooo.ooo",
"ooo...........oooooooooooooo.ooo",
"ooooooooooooooooooooooooooo.oooo",
"ooooo....ooooooooooooooooo.ooooo",
"oooooo..oooooooooooooooo..oooooo",
"ooooooo...oooooooooooo..oooooooo",
"ooooooooo....ooooooo...ooooooooo",
"oooooooooooo........oooooooooooo"
};
