/* XPM */
static char *a5098eaadf0b4a04c16320f5ea404e53[] = {
/* columns rows colors chars-per-pixel */
"64 64 4 1 ",
"  c #686868",
". c DimGray",
"X c #6A6A6A",
"o c None",
/* pixels */
"ooooooooooooooooooooooooooo..........ooooooooooooooooooooooooooo",
"ooooooooooooooooooooooo..................ooooooooooooooooooooooo",
"oooooooooooooooooooo......oooooooooooo......oooooooooooooooooooo",
"oooooooooooooooooo....ooooooooooooooooooo.....oooooooooooooooooo",
"oooooooooooooooo....oooooooooooooooooooooooo....oooooooooooooooo",
"oooooooooooooo....oooooooooooooooooooooooooooo....oooooooooooooo",
"ooooooooooooo ..oooooooooooooooooooooooooooooooo...ooooooooooooo",
"oooooooooooo...oooooooooooooooooooooooooooooooooo...oooooooooooo",
"oooooooooo....ooooooooooooooooooooooooooooooooooooo...oooooooooo",
"oooooooooo..........oooooooooooooooooooooooooooooooo...ooooooooo",
"ooooooooooooooooooooooooooooooooooooooooooooooooooooo...oooooooo",
"ooooooooooooooooooooooooooooooooooooooooooooo.....oooo..oooooooo",
"ooooooo.   ..   .   ..ooooooooooooooooooooo........Xooo..ooooooo",
"oooooo.................ooooooooooooooooooo...ooooo...ooo..oooooo",
"ooooo...oooooooooooooooooooooooooooooooooo..ooooooo...oo...ooooo",
"ooooo..oooooooooooooooooooooooooooooooooo..ooooooooo...oo..ooooo",
"oooo......ooooooooooooooooooooooooooooooo..oooooooooo..ooo..oooo",
"oooo......ooooooooooooooooooooooooooooooo..oooooooooo..ooo..oooo",
"ooooooooooooooooooooooooooooooooooooooooo..oooo..ooooo..ooo..ooo",
"ooooooooooooooooooooooooooooooooooooooooo..oooo...oooo..ooo..ooo",
"oo........ooooooooooooooooooooooooooooooo..oooo...oooo..oooo..oo",
"oo........ooooooooooooooooooooooooooooooo..ooooo..oooo..oooo..oo",
"oo.oooooooooooooooooooooooooooooooooooooo...oooooooooo..oooo..oo",
"o..ooooooooooooooooooooooooooooooooooooooo..oooooooooo..ooooo..o",
"o...............oooooooooooooooooooooooooo...ooooooooo.Xooooo..o",
"oo.............oooooooooooooooooooooooooooo...ooooooo..oooooo..o",
"oooooooooooooooooooooooooooooooooooooooooooo...ooooo...ooooooo.o",
"ooooooooooooooooooooooooooooooooooooooooooooo....X....oooooooo..",
"..............................ooooooooooooooooo....Xoooooooooo..",
"..oooooooooooooooooooooooooooooooooooooooooooooooooooooooooooo..",
"..oooooooooooooooooooooooooooooooooooooooooooooooooooooooooooo..",
"................................................................",
"................................................................",
"..oooooooooooooooooooooooooooooooooooooooooooooooooooooooooooo..",
"..oooooooooooooooooooooooooooooooooooooooooooooooooooooooooooo..",
"X.....................oooooooooooooooooooooooooooo..............",
"ooooooooooooooooooooooooooooooooooooooooooooooooooooooooooooo...",
"oooooooooooooooooooooooooooooooooooooooooooooooooooooooooooooo.o",
"oo...........................ooooooooooooooooooooooooooo.......o",
"o.............................ooooooooooooooooooooooooo........o",
"o..oooooooooooooooooooooooooooooooooooooooooooooooooooooooooo..o",
"oo.ooooooooooooooooooooooooooooooooooooooooooooooooooooooooo..oo",
"oo..XXXXXXXXXXXX..ooooooooooooooooooooooooooooooooooooooooooX.oo",
"oo................oooooooooooooooooooooooooooooooooooooooooo..oo",
"oooooooooooooooooooooooooooooooooooooooooooooooooooooooooooX.ooo",
"ooooooooooooooooooooooooooooooooooooooooooooooooooooooooooo..ooo",
"oooo......ooooooooooooooooooooooooooooooooo.................oooo",
"oooo...XX.ooooooooooooooooooooooooooooooooo...XXXXXXXXXXX...oooo",
"ooooo..oooooooooooooooooooooooooooooooooooooooooooooooooo..ooooo",
"ooooo...oooooooooooooooooooooooooooooooooooooooooooooooo...ooooo",
"oooooo.......................oooooooooooooooooooooooooo...oooooo",
"ooooooo.....................ooooooooooooooooooooooooooo..ooooooo",
"oooooooooooooooooooooooooooooooooooooooooooooooooooooo..oooooooo",
"ooooooooooooooooooooooooooooooooooooooooooooooooooooo...oooooooo",
"oooooooooo.........ooooooooooooooooooooooooooooooooo...ooooooooo",
"oooooooooo...Xoooooooooooooooooooooooooooooooooooo....oooooooooo",
"oooooooooooo...oooooooooooooooooooooooooooooooooo...oooooooooooo",
"ooooooooooooo...oooooooooooooooooooooooooooooooo...ooooooooooooo",
"oooooooooooooo....oooooooooooooooooooooooooooo....oooooooooooooo",
"oooooooooooooooo....oooooooooooooooooooooooo....oooooooooooooooo",
"oooooooooooooooooo....ooooooooooooooooooo.....oooooooooooooooooo",
"oooooooooooooooooooo......oooooooooooo......oooooooooooooooooooo",
"ooooooooooooooooooooooo..................ooooooooooooooooooooooo",
"ooooooooooooooooooooooooooo........X.ooooooooooooooooooooooooooo"
};
