/* XPM */
static char *_bb8ff2eca9d4ff3dd290e7c5d47aebf[] = {
/* columns rows colors chars-per-pixel */
"128 128 4 1 ",
"  c #686868",
". c DimGray",
"X c #6A6A6A",
"o c None",
/* pixels */
"oooooooooooooooooooooooooooooooooooooooooooooooooooooooo................oooooooooooooooooooooooooooooooooooooooooooooooooooooooo",
"oooooooooooooooooooooooooooooooooooooooooooooooooo............................oooooooooooooooooooooooooooooooooooooooooooooooooo",
"oooooooooooooooooooooooooooooooooooooooooooooo....................................oooooooooooooooooooooooooooooooooooooooooooooo",
"ooooooooooooooooooooooooooooooooooooooooooo..........................................ooooooooooooooooooooooooooooooooooooooooooo",
"oooooooooooooooooooooooooooooooooooooooo...............oooooooooooooooooo..............ooooooooooooooooooooooooooooooooooooooooo",
"oooooooooooooooooooooooooooooooooooooo............oooooooooooooooooooooooooooo............oooooooooooooooooooooooooooooooooooooo",
"oooooooooooooooooooooooooooooooooooo...........ooooooooooooooooooooooooooooooooooo..........oooooooooooooooooooooooooooooooooooo",
"oooooooooooooooooooooooooooooooooo.........oooooooooooooooooooooooooooooooooooooooooo.........oooooooooooooooooooooooooooooooooo",
"oooooooooooooooooooooooooooooooo.........oooooooooooooooooooooooooooooooooooooooooooooo.........oooooooooooooooooooooooooooooooo",
"oooooooooooooooooooooooooooooo.........oooooooooooooooooooooooooooooooooooooooooooooooooo........ooooooooooooooooooooooooooooooo",
"ooooooooooooooooooooooooooooo........ooooooooooooooooooooooooooooooooooooooooooooooooooooooo.......ooooooooooooooooooooooooooooo",
"ooooooooooooooooooooooooooo........oooooooooooooooooooooooooooooooooooooooooooooooooooooooooo........ooooooooooooooooooooooooooo",
"oooooooooooooooooooooooooo.......oooooooooooooooooooooooooooooooooooooooooooooooooooooooooooooo.......oooooooooooooooooooooooooo",
"ooooooooooooooooooooooooo.......ooooooooooooooooooooooooooooooooooooooooooooooooooooooooooooooooo......ooooooooooooooooooooooooo",
"oooooooooooooooooooooooo......oooooooooooooooooooooooooooooooooooooooooooooooooooooooooooooooooooo.......ooooooooooooooooooooooo",
"oooooooooooooooooooooo.......ooooooooooooooooooooooooooooooooooooooooooooooooooooooooooooooooooooooo......oooooooooooooooooooooo",
"ooooooooooooooooooooo......oooooooooooooooooooooooooooooooooooooooooooooooooooooooooooooooooooooooooo......ooooooooooooooooooooo",
"oooooooooooooooooooo...................ooooooooooooooooooooooooooooooooooooooooooooooooooooooooooooooo......oooooooooooooooooooo",
"ooooooooooooooooooo.....................ooooooooooooooooooooooooooooooooooooooooooooooooooooooooooooooo......ooooooooooooooooooo",
"oooooooooooooooooooo....................oooooooooooooooooooooooooooooooooooooooooooooooooooooooooooooooo......oooooooooooooooooo",
"oooooooooooooooooooo...................ooooooooooooooooooooooooooooooooooooooooooooooooooooooooooooooooooo.....ooooooooooooooooo",
"oooooooooooooooooooooooooooooooooooooooooooooooooooooooooooooooooooooooooooooooooooooooooooooo.oooooooooooo.....oooooooooooooooo",
"oooooooooooooooooooooooooooooooooooooooooooooooooooooooooooooooooooooooooooooooooooooooooo..........oooooooo.....ooooooooooooooo",
"oooooooooooooooooooooooooooooooooooooooooooooooooooooooooooooooooooooooooooooooooooooooo.............ooooooo......oooooooooooooo",
"ooooooooooooooooooooooooooooooooooooooooooooooooooooooooooooooooooooooooooooooooooooooo................oooooo.....oooooooooooooo",
"ooooooooooooo.................................oooooooooooooooooooooooooooooooooooooooo.......ooo.........ooooo.....ooooooooooooo",
"oooooooooooo..................................ooooooooooooooooooooooooooooooooooooooo.....ooooooooo.......ooooo.....oooooooooooo",
"oooooooooooo..................................oooooooooooooooooooooooooooooooooooooo.....oooooooooooo.....oooooo.....ooooooooooo",
"ooooooooooo..................................ooooooooooooooooooooooooooooooooooooooo....oooooooooooooo.....oooooo....ooooooooooo",
"oooooooooo.....oooooooooooooooooooooooooooooooooooooooooooooooooooooooooooooooooooo....oooooooooooooooo.....ooooo.....oooooooooo",
"oooooooooo....ooooooooooooooooooooooooooooooooooooooooooooooooooooooooooooooooooooo....ooooooooooooooooo.....ooooo....oooooooooo",
"ooooooooo....ooooooooooooooooooooooooooooooooooooooooooooooooooooooooooooooooooooo....ooooooooooooooooooo....oooooo....ooooooooo",
"oooooooo...........ooooooooooooooooooooooooooooooooooooooooooooooooooooooooooooooo....oooooooooooooooooooo....ooooo.....oooooooo",
"oooooooo............oooooooooooooooooooooooooooooooooooooooooooooooooooooooooooooo....oooooooooooooooooooo....oooooo....oooooooo",
"oooooooo............oooooooooooooooooooooooooooooooooooooooooooooooooooooooooooooo....ooooooooooooooooooooo....ooooo.....ooooooo",
"ooooooooo...........oooooooooooooooooooooooooooooooooooooooooooooooooooooooooooooo....ooooooooooooooooooooo....oooooo....ooooooo",
"oooooooooooooooooooooooooooooooooooooooooooooooooooooooooooooooooooooooooooooooooo...oooooooooo...oooooooooo...ooooooo....oooooo",
"oooooooooooooooooooooooooooooooooooooooooooooooooooooooooooooooooooooooooooooooooo...ooooooooo.....ooooooooo....oooooo....oooooo",
"oooooooooooooooooooooooooooooooooooooooooooooooooooooooooooooooooooooooooooooooooo...ooooooooo......oooooooo...Xooooooo....ooooo",
"oooooooooooooooooooooooooooooooooooooooooooooooooooooooooooooooooooooooooooooooooo....oooooooo......oooooooo....ooooooo....ooooo",
"ooooo...............oooooooooooooooooooooooooooooooooooooooooooooooooooooooooooooo....oooooooo......oooooooo....ooooooo....ooooo",
"oooo................oooooooooooooooooooooooooooooooooooooooooooooooooooooooooooooo....oooooooo......oooooooo....oooooooo....oooo",
"oooo................oooooooooooooooooooooooooooooooooooooooooooooooooooooooooooooo....ooooooooo.....ooooooooo...oooooooo....oooo",
"ooo................ooooooooooooooooooooooooooooooooooooooooooooooooooooooooooooooo....oooooooooo...oooooooooX...ooooooooo....ooo",
"ooo....oooooooooooooooooooooooooooooooooooooooooooooooooooooooooooooooooooooooooooo....oooooooooooooooooooooX...ooooooooo....ooo",
"ooo....oooooooooooooooooooooooooooooooooooooooooooooooooooooooooooooooooooooooooooo....ooooooooooooooooooooo....ooooooooo....ooo",
"ooo...oooooooooooooooooooooooooooooooooooooooooooooooooooooooooooooooooooooooooooooo....oooooooooooooooooooo....oooooooooo....oo",
"oo.............................ooooooooooooooooooooooooooooooooooooooooooooooooooooo....oooooooooooooooooooo...Xoooooooooo....oo",
"oo..............................ooooooooooooooooooooooooooooooooooooooooooooooooooooo....oooooooooooooooooo....ooooooooooo....oo",
"oo...............................oooooooooooooooooooooooooooooooooooooooooooooooooooo.....ooooooooooooooooo....ooooooooooo....oo",
"ooo.............................oooooooooooooooooooooooooooooooooooooooooooooooooooooo.....ooooooooooooooo.....oooooooooooo....o",
"ooooooooooooooooooooooooooooooooooooooooooooooooooooooooooooooooooooooooooooooooooooooo....ooooooooooooooo....ooooooooooooo....o",
"ooooooooooooooooooooooooooooooooooooooooooooooooooooooooooooooooooooooooooooooooooooooo......oooooooooooo.....ooooooooooooo....o",
"oooooooooooooooooooooooooooooooooooooooooooooooooooooooooooooooooooooooooooooooooooooooo......ooooooooo......oooooooooooooo....o",
"ooooooooooooooooooooooooooooooooooooooooooooooooooooooooooooooooooooooooooooooooooooooooo.........ooo.......ooooooooooooooo....o",
"o...........................................................ooooooooooooooooooooooooooooooo................ooooooooooooooooo...o",
"o............................................................ooooooooooooooooooooooooooooooo..............oooooooooooooooooo....",
".............................................................ooooooooooooooooooooooooooooooooo..........oooooooooooooooooooo....",
"............................................................oooooooooooooooooooooooooooooooooooooo.ooooooooooooooooooooooooo....",
"....oooooooooooooooooooooooooooooooooooooooooooooooooooooooooooooooooooooooooooooooooooooooooooooooooooooooooooooooooooooooo....",
"....oooooooooooooooooooooooooooooooooooooooooooooooooooooooooooooooooooooooooooooooooooooooooooooooooooooooooooooooooooooooo....",
"....oooooooooooooooooooooooooooooooooooooooooooooooooooooooooooooooooooooooooooooooooooooooooooooooooooooooooooooooooooooooo....",
"................................................................................................................................",
"................................................................................................................................",
"................................................................................................................................",
"................................................................................................................................",
"....oooooooooooooooooooooooooooooooooooooooooooooooooooooooooooooooooooooooooooooooooooooooooooooooooooooooooooooooooooooooo....",
"....oooooooooooooooooooooooooooooooooooooooooooooooooooooooooooooooooooooooooooooooooooooooooooooooooooooooooooooooooooooooo....",
"....oooooooooooooooooooooooooooooooooooooooooooooooooooooooooooooooooooooooooooooooooooooooooooooooooooooooooooooooooooooooo....",
"............................................oooooooooooooooooooooooooooooooooooooooooooooooooooooooo............................",
".............................................oooooooooooooooooooooooooooooooooooooooooooooooooooooo.............................",
"o............................................oooooooooooooooooooooooooooooooooooooooooooooooooooooo.............................",
"o...........................................oooooooooooooooooooooooooooooooooooooooooooooooooooooooo...........................o",
"ooooooooooooooooooooooooooooooooooooooooooooooooooooooooooooooooooooooooooooooooooooooooooooooooooooooooooooooooooooooooooo....o",
"ooooooooooooooooooooooooooooooooooooooooooooooooooooooooooooooooooooooooooooooooooooooooooooooooooooooooooooooooooooooooooo....o",
"ooooooooooooooooooooooooooooooooooooooooooooooooooooooooooooooooooooooooooooooooooooooooooooooooooooooooooooooooooooooooooo....o",
"ooooooooooooooooooooooooooooooooooooooooooooooooooooooooooooooooooooooooooooooooooooooooooooooooooooooooooooooooooooooooooo....o",
"ooo........................................................oooooooooooooooooooooooooooooooooooooooooooooooooooo................o",
"oo.........................................................oooooooooooooooooooooooooooooooooooooooooooooooooooo...............oo",
"oo.........................................................oooooooooooooooooooooooooooooooooooooooooooooooooooo...............oo",
"oo......  .  .  .. .  .  .  .  ...  ....  .  .  ....  .  .oooooooooooooooooooooooooooooooooooooooooooooooooooooo..............oo",
"ooo...oooooooooooooooooooooooooooooooooooooooooooooooooooooooooooooooooooooooooooooooooooooooooooooooooooooooooooooooooooo....oo",
"ooo....oooooooooooooooooooooooooooooooooooooooooooooooooooooooooooooooooooooooooooooooooooooooooooooooooooooooooooooooooo....ooo",
"ooo....oooooooooooooooooooooooooooooooooooooooooooooooooooooooooooooooooooooooooooooooooooooooooooooooooooooooooooooooooo....ooo",
"ooo................................oooooooooooooooooooooooooooooooooooooooooooooooooooooooooooooooooooooooooooooooooooooo....ooo",
"oooo................................oooooooooooooooooooooooooooooooooooooooooooooooooooooooooooooooooooooooooooooooooooo....oooo",
"oooo................................oooooooooooooooooooooooooooooooooooooooooooooooooooooooooooooooooooooooooooooooooooo....oooo",
"ooooo..............................oooooooooooooooooooooooooooooooooooooooooooooooooooooooooooooooooooooooooooooooooooo....ooooo",
"ooooooooooooooooooooooooooooooooooooooooooooooooooooooooooooooooooooooooooooooooooooooooooooooooooooooooooooooooooooooo....ooooo",
"oooooooooooooooooooooooooooooooooooooooooooooooooooooooooooooooooooooooooooooooooooooooooooooooooooooooooooooooooooooo.....ooooo",
"oooooooooooooooooooooooooooooooooooooooooooooooooooooooooooooooooooooooooooooooooooooooooooooooooooooooooooooooooooooo....oooooo",
"oooooooooooooooooooooooooooooooooooooooooooooooooooooooooooooooooooooooooooooooooooooooooooooooooooooooooooooooooooooo....oooooo",
"ooooooooo...........oooooooooooooooooooooooooooooooooooooooooooooooooooooooooooooooooo...................................ooooooo",
"oooooooo............ooooooooooooooooooooooooooooooooooooooooooooooooooooooooooooooooo....................................ooooooo",
"oooooooo............ooooooooooooooooooooooooooooooooooooooooooooooooooooooooooooooooo...................................oooooooo",
"oooooooo...........ooooooooooooooooooooooooooooooooooooooooooooooooooooooooooooooooooo..................................oooooooo",
"ooooooooo....oooooooooooooooooooooooooooooooooooooooooooooooooooooooooooooooooooooooooooooooooooooooooooooooooooooo....ooooooooo",
"oooooooooo....oooooooooooooooooooooooooooooooooooooooooooooooooooooooooooooooooooooooooooooooooooooooooooooooooooo....oooooooooo",
"oooooooooo.....oooooooooooooooooooooooooooooooooooooooooooooooooooooooooooooooooooooooooooooooooooooooooooooooooo.....oooooooooo",
"ooooooooooo...... ..  ... . .  .  ... . .  .  ... . .  ..ooooooooooooooooooooooooooooooooooooooooooooooooooooooo.....ooooooooooo",
"oooooooooooo..............................................oooooooooooooooooooooooooooooooooooooooooooooooooooooo.....ooooooooooo",
"oooooooooooo..............................................ooooooooooooooooooooooooooooooooooooooooooooooooooooo.....oooooooooooo",
"ooooooooooooo............................................ooooooooooooooooooooooooooooooooooooooooooooooooooooo.....ooooooooooooo",
"ooooooooooooooooooooooooooooooooooooooooooooooooooooooooooooooooooooooooooooooooooooooooooooooooooooooooooooo.....oooooooooooooo",
"oooooooooooooooooooooooooooooooooooooooooooooooooooooooooooooooooooooooooooooooooooooooooooooooooooooooooooo......oooooooooooooo",
"ooooooooooooooooooooooooooooooooooooooooooooooooooooooooooooooooooooooooooooooooooooooooooooooooooooooooooo......ooooooooooooooo",
"ooooooooooooooooooooooooooooooooooooooooooooooooooooooooooooooooooooooooooooooooooooooooooooooooooooooooooo.....oooooooooooooooo",
"oooooooooooooooooooo.................ooooooooooooooooooooooooooooooooooooooooooooooooooooooooooooooooooooo.....ooooooooooooooooo",
"ooooooooooooooooooo...................oooooooooooooooooooooooooooooooooooooooooooooooooooooooooooooooooo......oooooooooooooooooo",
"ooooooooooooooooooo...................ooooooooooooooooooooooooooooooooooooooooooooooooooooooooooooooooo......ooooooooooooooooooo",
"oooooooooooooooooooo.................ooooooooooooooooooooooooooooooooooooooooooooooooooooooooooooooooo......oooooooooooooooooooo",
"ooooooooooooooooooooo......oooooooooooooooooooooooooooooooooooooooooooooooooooooooooooooooooooooooooo......ooooooooooooooooooooo",
"oooooooooooooooooooooo.......ooooooooooooooooooooooooooooooooooooooooooooooooooooooooooooooooooooooo......oooooooooooooooooooooo",
"oooooooooooooooooooooooo......oooooooooooooooooooooooooooooooooooooooooooooooooooooooooooooooooooo.......ooooooooooooooooooooooo",
"ooooooooooooooooooooooooo.......ooooooooooooooooooooooooooooooooooooooooooooooooooooooooooooooooo......ooooooooooooooooooooooooo",
"oooooooooooooooooooooooooo.......oooooooooooooooooooooooooooooooooooooooooooooooooooooooooooooo.......oooooooooooooooooooooooooo",
"oooooooooooooooooooooooooooo.......oooooooooooooooooooooooooooooooooooooooooooooooooooooooooo........ooooooooooooooooooooooooooo",
"ooooooooooooooooooooooooooooo........oooooooooooooooooooooooooooooooooooooooooooooooooooooo........ooooooooooooooooooooooooooooo",
"ooooooooooooooooooooooooooooooo........oooooooooooooooooooooooooooooooooooooooooooooooooo........ooooooooooooooooooooooooooooooo",
"oooooooooooooooooooooooooooooooo.........oooooooooooooooooooooooooooooooooooooooooooooo.........oooooooooooooooooooooooooooooooo",
"oooooooooooooooooooooooooooooooooo.........oooooooooooooooooooooooooooooooooooooooooo.........oooooooooooooooooooooooooooooooooo",
"oooooooooooooooooooooooooooooooooooo...........ooooooooooooooooooooooooooooooooooo..........oooooooooooooooooooooooooooooooooooo",
"oooooooooooooooooooooooooooooooooooooo............oooooooooooooooooooooooooooo............oooooooooooooooooooooooooooooooooooooo",
"oooooooooooooooooooooooooooooooooooooooo...............oooooooooooooooooo..............ooooooooooooooooooooooooooooooooooooooooo",
"ooooooooooooooooooooooooooooooooooooooooooo..........................................ooooooooooooooooooooooooooooooooooooooooooo",
"oooooooooooooooooooooooooooooooooooooooooooooo....................................oooooooooooooooooooooooooooooooooooooooooooooo",
"oooooooooooooooooooooooooooooooooooooooooooooooooo............................oooooooooooooooooooooooooooooooooooooooooooooooooo",
"oooooooooooooooooooooooooooooooooooooooooooooooooooooooo................oooooooooooooooooooooooooooooooooooooooooooooooooooooooo"
};
